HIERARCHY
ROOT Hips
{
	OFFSET 0.000000 0.000000 0.000000 
	CHANNELS 6 Xposition Yposition Zposition Zrotation Xrotation Yrotation
	JOINT Spine
	{
		OFFSET -0.000000 8.280624 0.000000 
		CHANNELS 3 Zrotation Xrotation Yrotation
		JOINT Spine1
		{
			OFFSET -0.000000 24.860672 0.000000 
			CHANNELS 3 Zrotation Xrotation Yrotation
			JOINT Neck
			{
				OFFSET -0.000000 24.758574 2.250779 
				CHANNELS 3 Zrotation Xrotation Yrotation
				JOINT Head
				{
					OFFSET -0.000000 14.137651 -2.019665 
					CHANNELS 3 Zrotation Xrotation Yrotation
					End Site
					{
						OFFSET -0.000000 25.245806 0.000000 
					}
				}
			}
			JOINT LeftShoulder
			{
				OFFSET 4.021533 22.370487 -0.301823 
				CHANNELS 3 Zrotation Xrotation Yrotation
				JOINT LeftArm
				{
					OFFSET 12.928750 0.000000 0.000000 
					CHANNELS 3 Zrotation Xrotation Yrotation
					JOINT LeftForeArm
					{
						OFFSET 29.110218 0.000000 0.000000 
						CHANNELS 3 Zrotation Xrotation Yrotation
						JOINT LeftHand
						{
							OFFSET 26.112843 0.000000 0.000000 
							CHANNELS 3 Zrotation Xrotation Yrotation
							End Site
							{
								OFFSET 15.147485 0.000000 0.000000 
							}
						}
					}
				}
			}
			JOINT RightShoulder
			{
				OFFSET -4.040554 22.370487 -0.301823 
				CHANNELS 3 Zrotation Xrotation Yrotation
				JOINT RightArm
				{
					OFFSET -12.928750 0.000000 0.000000 
					CHANNELS 3 Zrotation Xrotation Yrotation
					JOINT RightForeArm
					{
						OFFSET -29.110218 0.000000 0.000000 
						CHANNELS 3 Zrotation Xrotation Yrotation
						JOINT RightHand
						{
							OFFSET -26.112843 0.000000 0.000000 
							CHANNELS 3 Zrotation Xrotation Yrotation
							End Site
							{
								OFFSET -15.147485 0.000000 0.000000 
							}
						}
					}
				}
			}
		}
	}
	JOINT LeftUpLeg
	{
		OFFSET 10.098323 0.000000 0.000000 
		CHANNELS 3 Zrotation Xrotation Yrotation
		JOINT LeftLeg
		{
			OFFSET -0.000000 -44.180832 0.000000 
			CHANNELS 3 Zrotation Xrotation Yrotation
			JOINT LeftFoot
			{
				OFFSET -0.000000 -40.401024 0.000000 
				CHANNELS 3 Zrotation Xrotation Yrotation
				JOINT LeftToeBase
				{
					OFFSET -0.000000 -6.563910 15.147485 
					CHANNELS 3 Zrotation Xrotation Yrotation
					End Site
					{
						OFFSET -0.000000 0.000000 4.039329 
					}
				}
			}
		}
	}
	JOINT RightUpLeg
	{
		OFFSET -10.098323 0.000000 0.000000 
		CHANNELS 3 Zrotation Xrotation Yrotation
		JOINT RightLeg
		{
			OFFSET -0.000000 -44.180832 0.000000 
			CHANNELS 3 Zrotation Xrotation Yrotation
			JOINT RightFoot
			{
				OFFSET -0.000000 -40.401024 0.000000 
				CHANNELS 3 Zrotation Xrotation Yrotation
				JOINT RightToeBase
				{
					OFFSET -0.000000 -6.563910 15.147485 
					CHANNELS 3 Zrotation Xrotation Yrotation
					End Site
					{
						OFFSET -0.000000 0.000000 4.039329 
					}
				}
			}
		}
	}
}
MOTION
Frames: 12
Frame Time: 0.008333
-39.098907 97.665771 -18.244823 -5.170573 27.664921 162.740234 -6.796256 14.168924 3.933915 22.024401 -8.818964 4.807937 -3.876530 19.945713 -3.329123 -1.159894 21.903704 -3.544599 4.930512 -11.650235 -28.746178 -21.620893 31.264494 -89.179153 5.009285 -18.865623 0.629594 -12.006230 -22.511602 35.601238 0.777507 -2.435998 27.679768 64.729378 -13.824387 29.805273 20.815403 -48.179474 47.003368 -3.667526 -53.557865 -19.737915 -18.405617 11.116680 -6.016912 -4.391655 19.390533 -6.583442 -3.155600 22.751516 -3.123075 0.000000 0.000000 0.000000 -26.842762 36.152027 1.062556 -4.624125 35.420715 12.548384 11.102505 23.887547 -26.332743 0.000000 0.000000 0.000000 
-38.909317 97.822502 -18.373014 -5.136317 27.825260 162.610764 -6.819196 14.219864 4.322442 22.046459 -8.982453 5.224331 -4.107683 20.423071 -3.407398 -1.352081 21.886589 -3.643395 4.977635 -11.247250 -28.508978 -22.696012 31.301889 -87.455429 4.738502 -22.012424 1.685536 -10.395044 -25.321598 37.544392 0.418576 -2.471362 28.345699 63.236450 -11.305602 30.954044 18.246414 -48.619339 41.353718 -0.690658 -52.936115 -19.947063 -18.521181 11.832027 -6.337944 -4.222435 18.608978 -6.489020 -3.272011 22.758774 -2.608202 0.000000 0.000000 0.000000 -26.849239 36.232002 0.979616 -4.367517 35.230755 12.427551 10.577940 23.897747 -26.385263 0.000000 0.000000 0.000000 
-38.717041 97.959518 -18.511761 -5.132555 27.956911 162.485855 -6.812819 14.260066 4.665340 22.034409 -9.112223 5.590044 -4.554180 20.819948 -3.402509 -1.308022 21.826654 -3.676669 5.141426 -10.821943 -28.012594 -24.030918 31.406513 -85.678108 5.005964 -25.783552 2.998663 -9.247638 -28.768400 38.394485 0.161802 -2.742551 29.129616 61.530502 -8.521419 32.242966 15.267253 -48.665157 35.594822 1.493251 -51.984730 -20.375805 -18.640194 12.515810 -7.059554 -4.211895 17.816198 -6.108959 -3.446809 22.691662 -1.928002 0.000000 0.000000 0.000000 -26.882504 36.312828 0.827223 -4.101217 34.975410 12.056462 9.796927 24.140917 -26.415146 0.000000 0.000000 0.000000 
-38.522316 98.086777 -18.656221 -5.102715 28.082649 162.375198 -6.832547 14.156646 5.065279 22.133379 -9.008441 5.981553 -5.289362 20.963022 -3.471960 -0.741547 22.080828 -3.816127 5.272370 -10.541420 -27.617649 -25.903555 31.428028 -83.509766 5.409997 -30.387548 4.233214 -7.041145 -32.673065 38.779049 -0.148173 -3.007826 29.895733 59.362759 -5.597756 33.817394 12.082783 -48.187836 29.930296 2.860613 -50.639496 -20.842224 -18.804888 13.224742 -7.343154 -3.923916 17.037807 -6.047031 -3.593152 22.628305 -1.388949 0.000000 0.000000 0.000000 -26.877522 36.417564 0.456470 -3.978767 34.737282 11.907562 8.951840 24.739754 -26.416994 0.000000 0.000000 0.000000 
-38.341610 98.197166 -18.799711 -5.105646 28.187199 162.321854 -6.729839 14.243366 5.402643 22.119106 -9.143181 6.351858 -5.967892 21.192049 -3.426263 -0.481770 22.115057 -3.826395 5.423445 -10.135603 -26.846756 -28.824192 31.315184 -80.700989 5.445802 -34.262146 5.725079 -8.464156 -36.702507 35.624058 -0.317535 -3.244644 31.106724 56.983089 -2.838072 35.225010 9.080628 -46.782879 24.776949 4.405478 -48.660324 -20.364527 -18.991955 13.903208 -7.806105 -3.678967 16.270935 -5.795287 -3.715546 22.546486 -0.865996 0.000000 0.000000 0.000000 -26.897141 36.488644 -0.350486 -4.151395 34.593231 12.057673 8.434810 25.297346 -26.318132 0.000000 0.000000 0.000000 
-38.161530 98.294014 -18.948997 -5.114774 28.285360 162.323410 -6.587392 14.364422 5.764831 22.127773 -9.315748 6.759502 -6.676908 21.364809 -3.411335 -0.251782 22.115864 -3.868204 5.531315 -9.697445 -25.939442 -32.879391 30.884312 -77.163223 4.898363 -38.732456 6.209903 -8.199361 -40.763626 32.268379 -0.475077 -3.234495 32.441078 54.411167 -0.436916 36.695396 6.540939 -44.662701 20.575544 6.387847 -46.269966 -19.572323 -19.170382 14.565957 -8.254991 -3.417710 15.567465 -5.611938 -3.858896 22.400230 -0.314042 0.000000 0.000000 0.000000 -26.889957 36.658588 -0.962571 -4.206742 34.409969 12.017954 8.274222 25.671772 -26.368290 0.000000 0.000000 0.000000 
-37.994419 98.387703 -19.103058 -5.145707 28.387470 162.375595 -6.352694 14.576464 6.151176 22.013893 -9.595093 7.208630 -7.453037 21.517408 -3.374348 0.140131 22.172859 -3.900275 5.641997 -9.235335 -24.938080 -35.892632 30.448412 -73.892029 2.769062 -43.246254 5.256742 -9.329681 -44.918781 26.495661 -0.625291 -3.067000 33.599594 51.757557 1.972024 38.368465 4.130579 -42.189404 17.128033 9.457922 -43.772381 -18.468864 -19.351770 15.205603 -8.821303 -3.210670 14.888288 -5.459661 -4.017441 22.299154 0.381636 0.000000 0.000000 0.000000 -26.905926 36.889889 -1.518304 -4.211445 34.164013 11.714293 8.358925 25.968855 -26.484808 0.000000 0.000000 0.000000 
-37.834179 98.479019 -19.270634 -5.170989 28.506603 162.487091 -6.019118 14.854569 6.613512 21.805126 -9.916551 7.743061 -8.304482 21.546627 -3.340903 0.767024 22.267776 -3.946151 5.777878 -9.031328 -23.967957 -39.550163 30.031248 -70.088821 -1.057191 -46.596989 2.566251 -11.911570 -47.860050 17.908998 -0.976892 -2.873737 34.871033 49.226238 3.936806 40.001381 2.516552 -39.378391 14.533571 12.442450 -41.086845 -17.446033 -19.508472 15.962983 -9.198365 -2.931390 14.078736 -5.244356 -4.048332 22.215591 0.726671 0.000000 0.000000 0.000000 -26.908068 37.219723 -2.120318 -4.235792 33.833099 11.396420 7.645228 26.855247 -25.952934 0.000000 0.000000 0.000000 
-37.673973 98.573807 -19.456621 -5.176422 28.678478 162.674286 -5.732409 15.208383 7.164652 21.658054 -10.268745 8.368302 -8.827745 21.000038 -3.325309 1.122295 23.167538 -3.939085 5.831812 -8.479411 -23.077484 -42.423157 29.379015 -66.763840 -6.832709 -48.874393 -2.740665 -10.941045 -49.728668 11.928224 -1.612585 -2.527292 36.080585 46.369846 6.412332 41.543266 1.409975 -37.519932 13.301730 14.066670 -39.327274 -17.232641 -19.630329 16.744318 -9.556178 -2.667342 13.401686 -5.328048 -4.138709 22.070387 1.286157 0.000000 0.000000 0.000000 -26.888788 37.720650 -2.650695 -4.219896 33.396347 11.201809 7.442224 27.219353 -25.571598 0.000000 0.000000 0.000000 
-37.523430 98.664986 -19.647854 -5.213813 28.858322 162.978638 -10.967521 12.646260 9.763786 31.522587 -6.274821 10.317685 -12.493690 18.017792 -5.285773 1.316264 24.129503 -5.814418 1.447358 -10.136515 -23.872503 -44.712246 29.525127 -65.293434 -11.892700 -50.506317 -8.932240 -5.391757 -51.430737 11.339638 -10.925755 -6.377436 33.373394 47.587601 9.788490 43.548470 0.805885 -36.359848 13.001551 15.176024 -38.262936 -17.140709 -19.721491 17.521326 -9.950780 -2.445948 12.756267 -5.552331 -4.257298 21.952888 1.927064 0.000000 0.000000 0.000000 -26.829252 38.322250 -3.221517 -4.269719 32.887684 11.315396 7.265049 27.739731 -25.394415 0.000000 0.000000 0.000000 
-37.386990 98.760483 -19.854994 -5.256525 29.038570 163.370544 -10.697089 13.014861 10.555447 31.233721 -6.705110 11.208199 -12.636031 17.039925 -5.644204 1.925493 25.599747 -6.144636 1.374348 -9.175635 -23.228729 -46.269608 29.238266 -63.416561 -18.006733 -50.438683 -16.911886 4.629049 -51.754517 14.872952 -11.827334 -6.028829 33.673450 44.711559 12.433124 45.415974 0.210555 -35.618919 12.541046 16.675858 -37.534161 -16.007652 -19.780394 18.321592 -10.346700 -2.218227 12.099486 -5.723837 -4.321044 21.895964 2.387669 0.000000 0.000000 0.000000 -26.719791 39.001785 -3.755831 -4.317441 32.338341 11.527276 7.322424 28.219776 -25.390152 0.000000 0.000000 0.000000 
-37.259590 98.849609 -20.067381 -5.346524 29.205629 163.882889 -10.394020 13.376246 11.324389 30.775524 -7.151226 12.073002 -12.503639 16.789019 -6.191539 2.590111 25.765385 -6.746998 1.247206 -8.100589 -22.702593 -46.482643 29.425749 -62.542793 -22.221987 -49.790291 -23.421610 12.735131 -51.467537 17.982346 -12.656825 -5.900305 33.886200 42.642334 14.517221 46.907822 -0.259809 -35.266586 12.332546 18.047152 -37.116348 -14.529045 -19.790699 19.106977 -10.847534 -2.059340 11.453125 -5.941012 -4.422077 21.852140 2.884640 0.000000 0.000000 0.000000 -26.544155 39.762249 -4.187573 -4.330902 31.726145 11.712865 7.345050 28.739410 -25.347321 0.000000 0.000000 0.000000 
